<mxfile host="Electron" modified="2023-12-10T02:57:43.020Z" agent="Mozilla/5.0 (Windows NT 10.0; Win64; x64) AppleWebKit/537.36 (KHTML, like Gecko) draw.io/22.1.2 Chrome/114.0.5735.289 Electron/25.9.4 Safari/537.36" etag="kA2M1QeMp9RhHVc7jAQY" version="22.1.2" type="device">
  <diagram name="Page-1" id="TMgefxdJRGZMqfMHHHXN">
    <mxGraphModel dx="956" dy="466" grid="1" gridSize="10" guides="1" tooltips="1" connect="1" arrows="1" fold="1" page="1" pageScale="1" pageWidth="850" pageHeight="1100" math="0" shadow="0">
      <root>
        <mxCell id="0" />
        <mxCell id="1" parent="0" />
        <mxCell id="R0-BgqqyzvlE6nPFY6-W-1" value="user" style="shape=umlActor;verticalLabelPosition=bottom;verticalAlign=top;html=1;outlineConnect=0;" vertex="1" parent="1">
          <mxGeometry x="130" y="220" width="30" height="60" as="geometry" />
        </mxCell>
        <mxCell id="R0-BgqqyzvlE6nPFY6-W-2" value="" style="rounded=0;whiteSpace=wrap;html=1;" vertex="1" parent="1">
          <mxGeometry x="200" y="120" width="320" height="300" as="geometry" />
        </mxCell>
        <mxCell id="R0-BgqqyzvlE6nPFY6-W-3" value="choose difficulty&amp;nbsp;" style="ellipse;whiteSpace=wrap;html=1;" vertex="1" parent="1">
          <mxGeometry x="314" y="129" width="90" height="40" as="geometry" />
        </mxCell>
        <mxCell id="R0-BgqqyzvlE6nPFY6-W-4" value="choose X or O" style="ellipse;whiteSpace=wrap;html=1;" vertex="1" parent="1">
          <mxGeometry x="315" y="190" width="90" height="40" as="geometry" />
        </mxCell>
        <mxCell id="R0-BgqqyzvlE6nPFY6-W-5" value="Reset the game" style="ellipse;whiteSpace=wrap;html=1;" vertex="1" parent="1">
          <mxGeometry x="315" y="248" width="90" height="40" as="geometry" />
        </mxCell>
        <mxCell id="R0-BgqqyzvlE6nPFY6-W-7" value="result of game" style="ellipse;whiteSpace=wrap;html=1;" vertex="1" parent="1">
          <mxGeometry x="314" y="300" width="90" height="40" as="geometry" />
        </mxCell>
        <mxCell id="R0-BgqqyzvlE6nPFY6-W-9" value="" style="endArrow=classic;html=1;rounded=0;exitX=1;exitY=0.3333333333333333;exitDx=0;exitDy=0;exitPerimeter=0;entryX=0;entryY=0.5;entryDx=0;entryDy=0;" edge="1" parent="1" source="R0-BgqqyzvlE6nPFY6-W-1" target="R0-BgqqyzvlE6nPFY6-W-3">
          <mxGeometry width="50" height="50" relative="1" as="geometry">
            <mxPoint x="330" y="250" as="sourcePoint" />
            <mxPoint x="380" y="200" as="targetPoint" />
          </mxGeometry>
        </mxCell>
        <mxCell id="R0-BgqqyzvlE6nPFY6-W-10" value="" style="endArrow=classic;html=1;rounded=0;entryX=0;entryY=0.5;entryDx=0;entryDy=0;" edge="1" parent="1" target="R0-BgqqyzvlE6nPFY6-W-4">
          <mxGeometry width="50" height="50" relative="1" as="geometry">
            <mxPoint x="160" y="240" as="sourcePoint" />
            <mxPoint x="324" y="159" as="targetPoint" />
          </mxGeometry>
        </mxCell>
        <mxCell id="R0-BgqqyzvlE6nPFY6-W-11" value="" style="endArrow=classic;html=1;rounded=0;entryX=0;entryY=0.5;entryDx=0;entryDy=0;" edge="1" parent="1" target="R0-BgqqyzvlE6nPFY6-W-5">
          <mxGeometry width="50" height="50" relative="1" as="geometry">
            <mxPoint x="160" y="240" as="sourcePoint" />
            <mxPoint x="325" y="220" as="targetPoint" />
          </mxGeometry>
        </mxCell>
        <mxCell id="R0-BgqqyzvlE6nPFY6-W-12" value="" style="endArrow=classic;html=1;rounded=0;entryX=0;entryY=0.5;entryDx=0;entryDy=0;exitX=1;exitY=0.3333333333333333;exitDx=0;exitDy=0;exitPerimeter=0;" edge="1" parent="1" source="R0-BgqqyzvlE6nPFY6-W-1" target="R0-BgqqyzvlE6nPFY6-W-7">
          <mxGeometry width="50" height="50" relative="1" as="geometry">
            <mxPoint x="180" y="260" as="sourcePoint" />
            <mxPoint x="335" y="230" as="targetPoint" />
          </mxGeometry>
        </mxCell>
        <mxCell id="R0-BgqqyzvlE6nPFY6-W-14" value="make move" style="ellipse;whiteSpace=wrap;html=1;" vertex="1" parent="1">
          <mxGeometry x="314" y="360" width="90" height="40" as="geometry" />
        </mxCell>
        <mxCell id="R0-BgqqyzvlE6nPFY6-W-16" value="" style="endArrow=classic;html=1;rounded=0;entryX=0;entryY=0.5;entryDx=0;entryDy=0;exitX=1;exitY=0.3333333333333333;exitDx=0;exitDy=0;exitPerimeter=0;" edge="1" parent="1" source="R0-BgqqyzvlE6nPFY6-W-1" target="R0-BgqqyzvlE6nPFY6-W-14">
          <mxGeometry width="50" height="50" relative="1" as="geometry">
            <mxPoint x="170" y="250" as="sourcePoint" />
            <mxPoint x="325" y="449" as="targetPoint" />
          </mxGeometry>
        </mxCell>
      </root>
    </mxGraphModel>
  </diagram>
</mxfile>
